<svg xmlns="http://www.w3.org/2000/svg" xmlns:xlink="http://www.w3.org/1999/xlink" width="48" zoomAndPan="magnify" viewBox="0 0 36 36.000001" height="48" preserveAspectRatio="xMidYMid meet" version="1.0"><defs><g/><clipPath id="3bb3d01387"><path d="M 0.488281 0 L 35.511719 0 L 35.511719 35.027344 L 0.488281 35.027344 Z M 0.488281 0 " clip-rule="nonzero"/></clipPath><clipPath id="768c2915b4"><path d="M 1 0 L 34 0 L 34 35.027344 L 1 35.027344 Z M 1 0 " clip-rule="nonzero"/></clipPath><clipPath id="656e98d610"><path d="M 0.652344 0 L 22 0 L 22 35.027344 L 0.652344 35.027344 Z M 0.652344 0 " clip-rule="nonzero"/></clipPath><clipPath id="dd21feac6c"><rect x="0" width="22" y="0" height="36"/></clipPath><clipPath id="b254654c0d"><path d="M 13 0 L 32.410156 0 L 32.410156 35.027344 L 13 35.027344 Z M 13 0 " clip-rule="nonzero"/></clipPath><clipPath id="4276eab9ad"><path d="M 0.265625 6 L 19 6 L 19 28 L 0.265625 28 Z M 0.265625 6 " clip-rule="nonzero"/></clipPath><clipPath id="8efbad78a5"><rect x="0" width="20" y="0" height="36"/></clipPath><clipPath id="74e1dca6cd"><rect x="0" width="33" y="0" height="36"/></clipPath></defs><g clip-path="url(#3bb3d01387)"><path fill="#ffffff" d="M 0.488281 0 L 35.511719 0 L 35.511719 35.027344 L 0.488281 35.027344 Z M 0.488281 0 " fill-opacity="1" fill-rule="nonzero"/><path fill="#faf5eb" d="M 0.488281 0 L 35.511719 0 L 35.511719 35.027344 L 0.488281 35.027344 Z M 0.488281 0 " fill-opacity="1" fill-rule="nonzero"/></g><g clip-path="url(#768c2915b4)"><g transform="matrix(1, 0, 0, 1, 1, 0.000000000000010582)"><g clip-path="url(#74e1dca6cd)"><g clip-path="url(#656e98d610)"><g transform="matrix(1, 0, 0, 1, 0, 0.000000000000010603)"><g clip-path="url(#dd21feac6c)"><g fill="#419c65" fill-opacity="1"><g transform="translate(0.893717, 26.798819)"><g><path d="M 10.6875 0.4375 C 8.875 0.4375 7.253906 0.00390625 5.828125 -0.859375 C 4.398438 -1.722656 3.28125 -2.898438 2.46875 -4.390625 C 1.664062 -5.890625 1.265625 -7.550781 1.265625 -9.375 C 1.265625 -11.1875 1.628906 -12.882812 2.359375 -14.46875 C 3.085938 -16.0625 4.175781 -17.347656 5.625 -18.328125 C 7.070312 -19.316406 8.820312 -19.8125 10.875 -19.8125 C 12.90625 -19.8125 14.769531 -19.25 16.46875 -18.125 L 16.328125 -19.625 L 17.828125 -19.625 L 17.828125 -13.203125 L 16.828125 -13.203125 C 16.640625 -14.910156 16.03125 -16.25 15 -17.21875 C 13.976562 -18.1875 12.664062 -18.671875 11.0625 -18.671875 C 9.757812 -18.671875 8.566406 -18.304688 7.484375 -17.578125 C 6.398438 -16.859375 5.546875 -15.820312 4.921875 -14.46875 C 4.296875 -13.125 3.984375 -11.566406 3.984375 -9.796875 C 3.984375 -8.097656 4.316406 -6.578125 4.984375 -5.234375 C 5.648438 -3.898438 6.546875 -2.859375 7.671875 -2.109375 C 8.796875 -1.367188 10.039062 -1 11.40625 -1 C 12.632812 -1 13.820312 -1.273438 14.96875 -1.828125 C 16.113281 -2.378906 17.054688 -3.160156 17.796875 -4.171875 L 18.515625 -3.59375 C 17.441406 -2.101562 16.210938 -1.054688 14.828125 -0.453125 C 13.441406 0.140625 12.0625 0.4375 10.6875 0.4375 Z M 10.6875 0.4375 "/></g></g></g></g></g></g><g clip-path="url(#b254654c0d)"><g transform="matrix(1, 0, 0, 1, 13, 0.000000000000010582)"><g clip-path="url(#8efbad78a5)"><g clip-path="url(#4276eab9ad)"><g fill="#000000" fill-opacity="1"><g transform="translate(1.007497, 27.258399)"><g><path d="M -0.078125 0 L -0.078125 -0.640625 L 1.640625 -0.78125 L 8.40625 -20.984375 L 9.046875 -20.984375 L 16.03125 -0.78125 L 17.921875 -0.640625 L 17.921875 0 L 10.28125 0 L 10.28125 -0.640625 L 12.203125 -0.78125 L 10.515625 -5.921875 L 4.109375 -5.921875 L 2.453125 -0.78125 L 4.390625 -0.640625 L 4.390625 0 Z M 4.375 -6.765625 L 10.203125 -6.890625 L 7.34375 -15.65625 L 7.28125 -15.65625 Z M 4.375 -6.765625 "/></g></g></g></g></g></g></g></g></g></g></svg>