<svg xmlns="http://www.w3.org/2000/svg" xmlns:xlink="http://www.w3.org/1999/xlink" width="48" zoomAndPan="magnify" viewBox="0 0 36 36.000001" height="48" preserveAspectRatio="xMidYMid meet" version="1.0"><defs><g/><clipPath id="c2fec69412"><path d="M 0.488281 0 L 35.511719 0 L 35.511719 35.027344 L 0.488281 35.027344 Z M 0.488281 0 " clip-rule="nonzero"/></clipPath><clipPath id="bb6a748ce0"><rect x="0" width="36" y="0" height="36"/></clipPath></defs><g clip-path="url(#c2fec69412)"><g transform="matrix(1, 0, 0, 1, 0.000000000000000056, 0.000000000000010582)"><g clip-path="url(#bb6a748ce0)"><g fill="#419c65" fill-opacity="1"><g transform="translate(1.146918, 28.80776)"><g><path d="M 11.640625 0.484375 C 9.671875 0.484375 7.90625 0.0078125 6.34375 -0.9375 C 4.789062 -1.882812 3.578125 -3.171875 2.703125 -4.796875 C 1.828125 -6.421875 1.390625 -8.234375 1.390625 -10.234375 C 1.390625 -12.203125 1.785156 -14.050781 2.578125 -15.78125 C 3.367188 -17.507812 4.554688 -18.910156 6.140625 -19.984375 C 7.722656 -21.066406 9.628906 -21.609375 11.859375 -21.609375 C 14.066406 -21.609375 16.097656 -20.992188 17.953125 -19.765625 L 17.796875 -21.390625 L 19.4375 -21.390625 L 19.4375 -14.390625 L 18.34375 -14.390625 C 18.144531 -16.265625 17.484375 -17.726562 16.359375 -18.78125 C 15.242188 -19.832031 13.8125 -20.359375 12.0625 -20.359375 C 10.632812 -20.359375 9.332031 -19.960938 8.15625 -19.171875 C 6.976562 -18.378906 6.046875 -17.25 5.359375 -15.78125 C 4.679688 -14.3125 4.34375 -12.613281 4.34375 -10.6875 C 4.34375 -8.832031 4.703125 -7.175781 5.421875 -5.71875 C 6.148438 -4.257812 7.128906 -3.125 8.359375 -2.3125 C 9.585938 -1.5 10.945312 -1.09375 12.4375 -1.09375 C 13.78125 -1.09375 15.070312 -1.390625 16.3125 -1.984375 C 17.5625 -2.585938 18.59375 -3.445312 19.40625 -4.5625 L 20.1875 -3.921875 C 19.019531 -2.296875 17.679688 -1.15625 16.171875 -0.5 C 14.660156 0.15625 13.148438 0.484375 11.640625 0.484375 Z M 11.640625 0.484375 "/></g></g></g><g fill="#000000" fill-opacity="1"><g transform="translate(14.964458, 27.319002)"><g><path d="M 19.035156 -0.664062 L 16.652344 -0.664062 L 9.292969 -20.726562 L 8.960938 -20.726562 L 1.839844 -0.664062 L -0.542969 -0.664062 L -0.542969 0 L 4.675781 0 L 4.675781 -0.664062 L 2.5625 -0.664062 L 4.527344 -6.394531 L 11.433594 -6.394531 L 13.515625 -0.664062 L 11.101562 -0.664062 L 11.101562 0 L 19.035156 0 Z M 4.828125 -7.121094 L 7.90625 -15.777344 L 7.996094 -15.777344 L 11.191406 -7.121094 Z M 4.828125 -7.121094 "/></g></g></g></g></g></g></svg>