<svg xmlns="http://www.w3.org/2000/svg" xmlns:xlink="http://www.w3.org/1999/xlink" width="48" zoomAndPan="magnify" viewBox="0 0 36 36.000001" height="48" preserveAspectRatio="xMidYMid meet" version="1.0"><defs><g/><clipPath id="2628469811"><path d="M 0.488281 0 L 35.511719 0 L 35.511719 35.027344 L 0.488281 35.027344 Z M 0.488281 0 " clip-rule="nonzero"/></clipPath><clipPath id="581a43d054"><rect x="0" width="23" y="0" height="35"/></clipPath><clipPath id="74d59f2c4e"><path d="M 15 0 L 34 0 L 34 35.027344 L 15 35.027344 Z M 15 0 " clip-rule="nonzero"/></clipPath><clipPath id="c448af2e87"><path d="M 0.429688 7 L 18.878906 7 L 18.878906 28 L 0.429688 28 Z M 0.429688 7 " clip-rule="nonzero"/></clipPath><clipPath id="235cd91c10"><rect x="0" width="19" y="0" height="36"/></clipPath></defs><g clip-path="url(#2628469811)"><path fill="#ffffff" d="M 0.488281 0 L 35.511719 0 L 35.511719 35.027344 L 0.488281 35.027344 Z M 0.488281 0 " fill-opacity="1" fill-rule="nonzero"/><path fill="#f88221" d="M 0.488281 0 L 35.511719 0 L 35.511719 35.027344 L 0.488281 35.027344 Z M 0.488281 0 " fill-opacity="1" fill-rule="nonzero"/></g><g transform="matrix(1, 0, 0, 1, 1, 0.000000000000010582)"><g clip-path="url(#581a43d054)"><g fill="#419c65" fill-opacity="1"><g transform="translate(1.07975, 25.933295)"><g><path d="M 10.859375 0.453125 C 9.023438 0.453125 7.378906 0.015625 5.921875 -0.859375 C 4.472656 -1.742188 3.335938 -2.945312 2.515625 -4.46875 C 1.703125 -5.988281 1.296875 -7.679688 1.296875 -9.546875 C 1.296875 -11.378906 1.664062 -13.101562 2.40625 -14.71875 C 3.144531 -16.332031 4.25 -17.640625 5.71875 -18.640625 C 7.195312 -19.648438 8.976562 -20.15625 11.0625 -20.15625 C 13.125 -20.15625 15.019531 -19.582031 16.75 -18.4375 L 16.609375 -19.953125 L 18.125 -19.953125 L 18.125 -13.421875 L 17.109375 -13.421875 C 16.921875 -15.171875 16.304688 -16.535156 15.265625 -17.515625 C 14.222656 -18.503906 12.882812 -19 11.25 -19 C 9.925781 -19 8.710938 -18.625 7.609375 -17.875 C 6.515625 -17.132812 5.644531 -16.078125 5 -14.703125 C 4.363281 -13.335938 4.046875 -11.757812 4.046875 -9.96875 C 4.046875 -8.238281 4.382812 -6.691406 5.0625 -5.328125 C 5.738281 -3.972656 6.648438 -2.914062 7.796875 -2.15625 C 8.941406 -1.394531 10.207031 -1.015625 11.59375 -1.015625 C 12.851562 -1.015625 14.0625 -1.296875 15.21875 -1.859375 C 16.382812 -2.421875 17.34375 -3.21875 18.09375 -4.25 L 18.828125 -3.65625 C 17.734375 -2.132812 16.484375 -1.066406 15.078125 -0.453125 C 13.671875 0.148438 12.265625 0.453125 10.859375 0.453125 Z M 10.859375 0.453125 "/></g></g></g></g></g><g clip-path="url(#74d59f2c4e)"><g transform="matrix(1, 0, 0, 1, 15, 0.000000000000010547)"><g clip-path="url(#235cd91c10)"><g clip-path="url(#c448af2e87)"><g fill="#000000" fill-opacity="1"><g transform="translate(1.075513, 27.613513)"><g><path d="M -0.078125 0 L -0.078125 -0.625 L 1.578125 -0.75 L 8.078125 -20.171875 L 8.703125 -20.171875 L 15.421875 -0.75 L 17.234375 -0.625 L 17.234375 0 L 9.875 0 L 9.875 -0.625 L 11.734375 -0.75 L 10.109375 -5.6875 L 3.953125 -5.6875 L 2.359375 -0.75 L 4.21875 -0.625 L 4.21875 0 Z M 4.203125 -6.515625 L 9.8125 -6.625 L 7.0625 -15.0625 L 7 -15.0625 Z M 4.203125 -6.515625 "/></g></g></g></g></g></g></g></svg>