<svg xmlns="http://www.w3.org/2000/svg" xmlns:xlink="http://www.w3.org/1999/xlink" width="2200" zoomAndPan="magnify" viewBox="0 0 1650 449.999984" height="600" preserveAspectRatio="xMidYMid meet" version="1.0"><defs><g/><clipPath id="4d6968abdb"><path d="M 52.503906 423.300781 L 1605 423.300781 L 1605 450 L 52.503906 450 Z M 52.503906 423.300781 " clip-rule="nonzero"/></clipPath></defs><g fill="#419c65" fill-opacity="1"><g transform="translate(342.807519, 144.825949)"><g><path d="M 67.71875 2.8125 C 56.25 2.8125 45.984375 0.0625 36.921875 -5.4375 C 27.859375 -10.9375 20.78125 -18.421875 15.6875 -27.890625 C 10.601562 -37.359375 8.0625 -47.882812 8.0625 -59.46875 C 8.0625 -70.925781 10.367188 -81.679688 14.984375 -91.734375 C 19.609375 -101.796875 26.507812 -109.957031 35.6875 -116.21875 C 44.875 -122.476562 55.957031 -125.609375 68.9375 -125.609375 C 81.800781 -125.609375 93.613281 -122.039062 104.375 -114.90625 L 103.5 -124.375 L 112.96875 -124.375 L 112.96875 -83.671875 L 106.65625 -83.671875 C 105.488281 -94.546875 101.660156 -103.050781 95.171875 -109.1875 C 88.679688 -115.332031 80.347656 -118.40625 70.171875 -118.40625 C 61.867188 -118.40625 54.296875 -116.09375 47.453125 -111.46875 C 40.609375 -106.851562 35.195312 -100.273438 31.21875 -91.734375 C 27.25 -83.203125 25.265625 -73.320312 25.265625 -62.09375 C 25.265625 -51.332031 27.367188 -41.710938 31.578125 -33.234375 C 35.785156 -24.765625 41.457031 -18.160156 48.59375 -13.421875 C 55.726562 -8.679688 63.625 -6.3125 72.28125 -6.3125 C 80.113281 -6.3125 87.65625 -8.066406 94.90625 -11.578125 C 102.15625 -15.085938 108.117188 -20.054688 112.796875 -26.484375 L 117.359375 -22.8125 C 110.578125 -13.332031 102.800781 -6.691406 94.03125 -2.890625 C 85.257812 0.910156 76.488281 2.8125 67.71875 2.8125 Z M 67.71875 2.8125 "/></g></g></g><g fill="#419c65" fill-opacity="1"><g transform="translate(466.469024, 144.825949)"><g><path d="M 70.515625 2.8125 C 56.484375 2.8125 44.789062 -0.285156 35.4375 -6.484375 C 26.082031 -12.679688 19.179688 -20.660156 14.734375 -30.421875 C 10.285156 -40.191406 8.0625 -50.515625 8.0625 -61.390625 C 8.0625 -71.804688 10.367188 -81.925781 14.984375 -91.75 C 19.609375 -101.570312 26.507812 -109.671875 35.6875 -116.046875 C 44.875 -122.421875 56.015625 -125.609375 69.109375 -125.609375 C 82.566406 -125.609375 94 -122.421875 103.40625 -116.046875 C 112.820312 -109.671875 119.867188 -101.570312 124.546875 -91.75 C 129.222656 -81.925781 131.5625 -71.804688 131.5625 -61.390625 C 131.5625 -51.097656 129.25 -41.007812 124.625 -31.125 C 120.007812 -21.25 113.113281 -13.125 103.9375 -6.75 C 94.757812 -0.375 83.617188 2.8125 70.515625 2.8125 Z M 70.875 -4.390625 C 79.988281 -4.390625 87.789062 -6.988281 94.28125 -12.1875 C 100.78125 -17.394531 105.695312 -24.09375 109.03125 -32.28125 C 112.363281 -40.46875 114.03125 -49.0625 114.03125 -58.0625 C 114.03125 -68 112.210938 -77.617188 108.578125 -86.921875 C 104.953125 -96.222656 99.691406 -103.820312 92.796875 -109.71875 C 85.898438 -115.625 77.832031 -118.578125 68.59375 -118.578125 C 59.46875 -118.578125 51.628906 -115.972656 45.078125 -110.765625 C 38.535156 -105.566406 33.597656 -98.816406 30.265625 -90.515625 C 26.929688 -82.210938 25.265625 -73.5625 25.265625 -64.5625 C 25.265625 -55.320312 26.957031 -46.050781 30.34375 -36.75 C 33.738281 -27.457031 38.882812 -19.738281 45.78125 -13.59375 C 52.6875 -7.457031 61.050781 -4.390625 70.875 -4.390625 Z M 70.875 -4.390625 "/></g></g></g><g fill="#419c65" fill-opacity="1"><g transform="translate(606.794133, 144.825949)"><g><path d="M -1.046875 -5.78125 C 1.867188 -5.78125 4.203125 -6.453125 5.953125 -7.796875 C 7.710938 -9.148438 9.144531 -10.90625 10.25 -13.0625 C 11.363281 -15.226562 12.679688 -18.476562 14.203125 -22.8125 L 15.96875 -27.71875 L 52.09375 -126.125 L 56.3125 -126.125 L 95.421875 -26.3125 C 96.710938 -23.15625 97.828125 -19.734375 98.765625 -16.046875 C 99.703125 -12.367188 100.109375 -9.359375 99.984375 -7.015625 L 111.921875 -7.71875 L 111.921875 0 L 71.75 0 L 71.75 -5.78125 C 78.644531 -5.90625 82.09375 -8.710938 82.09375 -14.203125 C 82.09375 -16.429688 81.507812 -19.179688 80.34375 -22.453125 L 74.203125 -38.9375 L 28.59375 -37.890625 C 26.84375 -33.097656 24.796875 -26.84375 22.453125 -19.125 C 21.285156 -15.257812 19.820312 -11.222656 18.0625 -7.015625 L 31.75 -7.71875 L 31.75 0 L -1.046875 0 Z M 71.75 -45.4375 L 59.296875 -78.9375 L 51.40625 -100.515625 L 51.046875 -100.515625 L 43.6875 -80.6875 L 34.203125 -54.03125 L 31.21875 -45.4375 Z M 71.75 -45.4375 "/></g></g></g><g fill="#419c65" fill-opacity="1"><g transform="translate(717.650981, 144.825949)"><g><path d="M 67.71875 2.8125 C 56.25 2.8125 45.984375 0.0625 36.921875 -5.4375 C 27.859375 -10.9375 20.78125 -18.421875 15.6875 -27.890625 C 10.601562 -37.359375 8.0625 -47.882812 8.0625 -59.46875 C 8.0625 -70.925781 10.367188 -81.679688 14.984375 -91.734375 C 19.609375 -101.796875 26.507812 -109.957031 35.6875 -116.21875 C 44.875 -122.476562 55.957031 -125.609375 68.9375 -125.609375 C 81.800781 -125.609375 93.613281 -122.039062 104.375 -114.90625 L 103.5 -124.375 L 112.96875 -124.375 L 112.96875 -83.671875 L 106.65625 -83.671875 C 105.488281 -94.546875 101.660156 -103.050781 95.171875 -109.1875 C 88.679688 -115.332031 80.347656 -118.40625 70.171875 -118.40625 C 61.867188 -118.40625 54.296875 -116.09375 47.453125 -111.46875 C 40.609375 -106.851562 35.195312 -100.273438 31.21875 -91.734375 C 27.25 -83.203125 25.265625 -73.320312 25.265625 -62.09375 C 25.265625 -51.332031 27.367188 -41.710938 31.578125 -33.234375 C 35.785156 -24.765625 41.457031 -18.160156 48.59375 -13.421875 C 55.726562 -8.679688 63.625 -6.3125 72.28125 -6.3125 C 80.113281 -6.3125 87.65625 -8.066406 94.90625 -11.578125 C 102.15625 -15.085938 108.117188 -20.054688 112.796875 -26.484375 L 117.359375 -22.8125 C 110.578125 -13.332031 102.800781 -6.691406 94.03125 -2.890625 C 85.257812 0.910156 76.488281 2.8125 67.71875 2.8125 Z M 67.71875 2.8125 "/></g></g></g><g fill="#419c65" fill-opacity="1"><g transform="translate(841.312486, 144.825949)"><g><path d="M 9.640625 -5.78125 C 13.734375 -5.90625 16.65625 -6.84375 18.40625 -8.59375 C 20.164062 -10.351562 21.160156 -12.429688 21.390625 -14.828125 C 21.628906 -17.222656 21.75 -21.398438 21.75 -27.359375 L 21.75 -103.140625 C 21.75 -108.054688 21.925781 -112.269531 22.28125 -115.78125 L 9.640625 -115.078125 L 9.640625 -122.796875 L 49.125 -122.796875 L 49.125 -117 C 45.03125 -116.882812 42.101562 -115.945312 40.34375 -114.1875 C 38.59375 -112.4375 37.597656 -110.363281 37.359375 -107.96875 C 37.128906 -105.570312 37.015625 -101.390625 37.015625 -95.421875 L 37.015625 -66.3125 L 99.8125 -66.3125 L 99.8125 -103.140625 C 99.8125 -108.054688 99.988281 -112.269531 100.34375 -115.78125 L 87.71875 -115.078125 L 87.71875 -122.796875 L 127.1875 -122.796875 L 127.1875 -117 C 123.09375 -116.882812 120.164062 -115.945312 118.40625 -114.1875 C 116.65625 -112.4375 115.660156 -110.363281 115.421875 -107.96875 C 115.191406 -105.570312 115.078125 -101.390625 115.078125 -95.421875 L 115.078125 -20.875 C 115.078125 -14.675781 114.898438 -10.054688 114.546875 -7.015625 L 127.1875 -7.71875 L 127.1875 0 L 87.71875 0 L 87.71875 -5.78125 C 91.800781 -5.90625 94.71875 -6.84375 96.46875 -8.59375 C 98.226562 -10.351562 99.222656 -12.429688 99.453125 -14.828125 C 99.691406 -17.222656 99.8125 -21.398438 99.8125 -27.359375 L 99.8125 -59.296875 L 37.015625 -58.59375 L 37.015625 -20.875 C 37.015625 -14.675781 36.835938 -10.054688 36.484375 -7.015625 L 49.125 -7.71875 L 49.125 0 L 9.640625 0 Z M 9.640625 -5.78125 "/></g></g></g><g fill="#419c65" fill-opacity="1"><g transform="translate(979.181878, 144.825949)"><g><path d="M 9.640625 -5.78125 C 13.734375 -5.90625 16.65625 -6.84375 18.40625 -8.59375 C 20.164062 -10.351562 21.160156 -12.429688 21.390625 -14.828125 C 21.628906 -17.222656 21.75 -21.398438 21.75 -27.359375 L 21.75 -103.140625 C 21.75 -108.054688 21.925781 -112.269531 22.28125 -115.78125 L 9.640625 -115.078125 L 9.640625 -122.796875 L 49.125 -122.796875 L 49.125 -117 C 45.03125 -116.882812 42.101562 -115.945312 40.34375 -114.1875 C 38.59375 -112.4375 37.597656 -110.363281 37.359375 -107.96875 C 37.128906 -105.570312 37.015625 -101.390625 37.015625 -95.421875 L 37.015625 -20.875 C 37.015625 -14.675781 36.835938 -10.054688 36.484375 -7.015625 L 49.125 -7.71875 L 49.125 0 L 9.640625 0 Z M 9.640625 -5.78125 "/></g></g></g><g fill="#419c65" fill-opacity="1"><g transform="translate(1038.995518, 144.825949)"><g><path d="M 29.46875 -99.46875 L 29.296875 -99.46875 L 29.828125 -24.390625 C 29.828125 -16.546875 29.707031 -10.753906 29.46875 -7.015625 L 42.09375 -7.71875 L 42.09375 0 L 10 0 L 10 -5.78125 C 14.675781 -5.78125 17.773438 -7.125 19.296875 -9.8125 C 20.816406 -12.507812 21.578125 -15.785156 21.578125 -19.640625 L 21.75 -115.78125 L 10 -115.078125 L 10 -122.796875 L 30.875 -122.796875 L 105.609375 -22.8125 L 105.78125 -22.8125 L 105.953125 -103.140625 C 105.953125 -108.054688 106.128906 -112.269531 106.484375 -115.78125 L 93.84375 -115.078125 L 93.84375 -122.796875 L 126.125 -122.796875 L 126.125 -117 C 122.613281 -116.882812 120.007812 -116.210938 118.3125 -114.984375 C 116.625 -113.753906 115.546875 -112.085938 115.078125 -109.984375 C 114.609375 -107.878906 114.375 -105.070312 114.375 -101.5625 L 114.375 -95.421875 L 114.03125 2.8125 L 105.609375 2.8125 Z M 29.46875 -99.46875 "/></g></g></g><g fill="#419c65" fill-opacity="1"><g transform="translate(1173.707665, 144.825949)"><g><path d="M 67.890625 2.8125 C 56.191406 2.8125 45.835938 0.328125 36.828125 -4.640625 C 27.828125 -9.617188 20.8125 -16.726562 15.78125 -25.96875 C 10.757812 -35.207031 8.25 -46.140625 8.25 -58.765625 C 8.25 -70.222656 10.554688 -81.039062 15.171875 -91.21875 C 19.796875 -101.394531 26.722656 -109.671875 35.953125 -116.046875 C 45.191406 -122.421875 56.304688 -125.609375 69.296875 -125.609375 C 75.609375 -125.609375 82.007812 -124.757812 88.5 -123.0625 C 94.988281 -121.363281 100.691406 -118.992188 105.609375 -115.953125 L 104.90625 -124.375 L 114.546875 -124.375 L 114.546875 -84.203125 L 108.234375 -84.203125 C 107.410156 -94.960938 103.519531 -103.378906 96.5625 -109.453125 C 89.601562 -115.535156 80.921875 -118.578125 70.515625 -118.578125 C 62.210938 -118.578125 54.640625 -116.179688 47.796875 -111.390625 C 40.960938 -106.597656 35.523438 -99.960938 31.484375 -91.484375 C 27.453125 -83.003906 25.4375 -73.441406 25.4375 -62.796875 C 25.4375 -51.804688 27.421875 -41.984375 31.390625 -33.328125 C 35.367188 -24.671875 40.925781 -17.882812 48.0625 -12.96875 C 55.195312 -8.0625 63.328125 -5.609375 72.453125 -5.609375 C 77.484375 -5.609375 82.65625 -6.335938 87.96875 -7.796875 C 93.289062 -9.265625 98.117188 -11.460938 102.453125 -14.390625 L 102.453125 -52.796875 L 90.171875 -52.09375 L 90.171875 -59.8125 L 129.8125 -59.8125 L 129.8125 -54.03125 C 124.195312 -54.03125 120.6875 -51.894531 119.28125 -47.625 C 117.882812 -43.351562 117.1875 -38.53125 117.1875 -33.15625 L 117.1875 -6.3125 L 112.453125 -6.3125 C 107.535156 -6.3125 101.21875 -4.789062 93.5 -1.75 C 89.988281 -0.351562 85.835938 0.753906 81.046875 1.578125 C 76.253906 2.398438 71.867188 2.8125 67.890625 2.8125 Z M 67.890625 2.8125 "/></g></g></g><g fill="#000000" fill-opacity="1"><g transform="translate(55.778932, 398.415893)"><g><path d="M -0.875 0 L -0.875 -6.59375 L 16.84375 -8.0625 L 86.140625 -215.046875 L 92.71875 -215.046875 L 164.359375 -8.0625 L 183.6875 -6.59375 L 183.6875 0 L 105.328125 0 L 105.328125 -6.59375 L 125.09375 -8.0625 L 107.8125 -60.640625 L 42.1875 -60.640625 L 25.203125 -8.0625 L 44.96875 -6.59375 L 44.96875 0 Z M 44.828125 -69.4375 L 104.59375 -70.609375 L 75.296875 -160.546875 L 74.703125 -160.546875 Z M 44.828125 -69.4375 "/></g></g></g><g fill="#000000" fill-opacity="1"><g transform="translate(238.780088, 398.415893)"><g><path d="M 10.6875 0 L 10.6875 -6.59375 L 33.25 -8.0625 L 33.25 -200.984375 L 10.6875 -202.4375 L 10.6875 -209.03125 L 73.390625 -209.03125 L 134.46875 -53.171875 L 134.765625 -53.171875 L 192.1875 -209.03125 L 252.25 -209.03125 L 252.25 -202.4375 L 229.6875 -200.984375 L 229.6875 -8.0625 L 252.25 -6.59375 L 252.25 0 L 169.625 0 L 169.625 -6.59375 L 192.1875 -8.0625 L 192.484375 -187.203125 L 192.1875 -187.203125 L 122.609375 2.9375 L 117.1875 2.9375 L 39.84375 -194.09375 L 39.546875 -194.09375 L 41.75 -8.0625 L 63.875 -6.59375 L 63.875 0 Z M 10.6875 0 "/></g></g></g><g fill="#000000" fill-opacity="1"><g transform="translate(503.519514, 398.415893)"><g><path d="M 10.6875 0 L 10.6875 -6.59375 L 33.25 -8.0625 L 33.25 -200.984375 L 10.6875 -202.4375 L 10.6875 -209.03125 L 90.234375 -209.03125 C 100.972656 -209.03125 110.90625 -207.882812 120.03125 -205.59375 C 129.164062 -203.300781 137.394531 -199.832031 144.71875 -195.1875 C 152.050781 -190.550781 157.789062 -184.347656 161.9375 -176.578125 C 166.09375 -168.816406 168.171875 -159.859375 168.171875 -149.703125 C 168.171875 -140.328125 166.582031 -131.878906 163.40625 -124.359375 C 160.226562 -116.847656 155.953125 -110.550781 150.578125 -105.46875 C 145.210938 -100.394531 138.742188 -96.171875 131.171875 -92.796875 C 123.609375 -89.429688 115.601562 -86.988281 107.15625 -85.46875 C 98.707031 -83.957031 89.75 -83.203125 80.28125 -83.203125 C 78.226562 -83.203125 75.050781 -83.300781 70.75 -83.5 L 70.75 -8.0625 L 93.3125 -6.59375 L 93.3125 0 Z M 70.75 -91.84375 C 74.164062 -91.550781 77.632812 -91.40625 81.15625 -91.40625 C 113.1875 -91.40625 129.203125 -110.9375 129.203125 -150 C 129.203125 -159.46875 128.125 -167.546875 125.96875 -174.234375 C 123.820312 -180.929688 120.722656 -186.109375 116.671875 -189.765625 C 112.617188 -193.429688 108.125 -196.066406 103.1875 -197.671875 C 98.257812 -199.285156 92.625 -200.09375 86.28125 -200.09375 C 81.5 -200.09375 76.320312 -199.703125 70.75 -198.921875 Z M 70.75 -91.84375 "/></g></g></g><g fill="#000000" fill-opacity="1"><g transform="translate(682.126113, 398.415893)"><g><path d="M 10.6875 0 L 10.6875 -6.59375 L 33.25 -8.0625 L 33.25 -200.984375 L 10.6875 -202.4375 L 10.6875 -209.03125 L 93.3125 -209.03125 L 93.3125 -202.4375 L 70.75 -200.984375 L 70.75 -9.515625 C 86.664062 -8.441406 97.554688 -7.90625 103.421875 -7.90625 C 108.785156 -7.90625 113.492188 -8.050781 117.546875 -8.34375 C 121.609375 -8.644531 125.320312 -9.28125 128.6875 -10.25 C 132.050781 -11.226562 134.878906 -12.253906 137.171875 -13.328125 C 139.472656 -14.398438 141.648438 -16.082031 143.703125 -18.375 C 145.753906 -20.675781 147.414062 -22.925781 148.6875 -25.125 C 149.957031 -27.320312 151.613281 -31.617188 153.65625 -38.015625 C 155.707031 -44.410156 157.515625 -51.660156 159.078125 -59.765625 L 164.0625 -59.765625 L 164.0625 0 Z M 10.6875 0 "/></g></g></g><g fill="#000000" fill-opacity="1"><g transform="translate(854.7269, 398.415893)"><g><path d="M 10.6875 0 L 10.6875 -6.59375 L 33.25 -8.0625 L 33.25 -200.984375 L 10.6875 -202.4375 L 10.6875 -209.03125 L 93.3125 -209.03125 L 93.3125 -202.4375 L 70.75 -200.984375 L 70.75 -8.0625 L 93.3125 -6.59375 L 93.3125 0 Z M 10.6875 0 "/></g></g></g><g fill="#000000" fill-opacity="1"><g transform="translate(960.530816, 398.415893)"><g><path d="M 10.6875 0 L 10.6875 -6.59375 L 33.25 -8.0625 L 33.25 -200.984375 L 10.6875 -202.4375 L 10.6875 -209.03125 L 149.125 -209.03125 L 150.59375 -149.421875 L 142.390625 -149.421875 C 141.703125 -157.617188 140.523438 -164.625 138.859375 -170.4375 C 137.203125 -176.25 134.6875 -181.570312 131.3125 -186.40625 C 127.945312 -191.238281 123.332031 -194.875 117.46875 -197.3125 C 111.613281 -199.757812 104.488281 -200.984375 96.09375 -200.984375 C 84.863281 -200.984375 76.414062 -200.492188 70.75 -199.515625 L 70.75 -109.28125 C 73.195312 -109.175781 74.613281 -109.125 75 -109.125 C 81.9375 -109.125 87.40625 -109.488281 91.40625 -110.21875 C 95.40625 -110.957031 99.015625 -112.519531 102.234375 -114.90625 C 105.460938 -117.300781 107.710938 -120.84375 108.984375 -125.53125 C 110.253906 -130.21875 110.890625 -136.46875 110.890625 -144.28125 L 118.953125 -144.28125 L 118.953125 -65.625 L 110.890625 -65.625 C 110.890625 -79 108.691406 -88.273438 104.296875 -93.453125 C 99.898438 -98.628906 92.578125 -101.21875 82.328125 -101.21875 L 70.75 -101.078125 L 70.75 -8.0625 L 99.171875 -6.59375 L 99.171875 0 Z M 10.6875 0 "/></g></g></g><g fill="#000000" fill-opacity="1"><g transform="translate(1120.533853, 398.415893)"><g><path d="M 10.6875 0 L 10.6875 -6.59375 L 33.25 -8.0625 L 33.25 -200.984375 L 10.6875 -202.4375 L 10.6875 -209.03125 L 93.3125 -209.03125 L 93.3125 -202.4375 L 70.75 -200.984375 L 70.75 -8.0625 L 93.3125 -6.59375 L 93.3125 0 Z M 10.6875 0 "/></g></g></g><g fill="#000000" fill-opacity="1"><g transform="translate(1226.337769, 398.415893)"><g><path d="M 10.6875 0 L 10.6875 -6.59375 L 33.25 -8.0625 L 33.25 -200.984375 L 10.6875 -202.4375 L 10.6875 -209.03125 L 154.984375 -209.03125 L 156.453125 -149.421875 L 150.296875 -149.421875 C 149.117188 -156.054688 147.867188 -161.691406 146.546875 -166.328125 C 145.234375 -170.972656 143.351562 -175.640625 140.90625 -180.328125 C 138.46875 -185.015625 135.613281 -188.75 132.34375 -191.53125 C 129.070312 -194.3125 124.875 -196.582031 119.75 -198.34375 C 114.625 -200.101562 108.691406 -200.984375 101.953125 -200.984375 C 93.648438 -200.984375 83.25 -200.492188 70.75 -199.515625 L 70.75 -112.5 C 73.675781 -112.207031 79 -112.0625 86.71875 -112.0625 C 96.96875 -112.0625 104.289062 -114.578125 108.6875 -119.609375 C 113.082031 -124.640625 115.28125 -133.796875 115.28125 -147.078125 L 123.34375 -147.078125 L 123.34375 -68.40625 L 115.28125 -68.40625 C 115.28125 -81.6875 113.054688 -90.9375 108.609375 -96.15625 C 104.171875 -101.382812 96.875 -104 86.71875 -104 C 79.195312 -104 73.875 -103.851562 70.75 -103.5625 L 70.75 -9.515625 C 83.25 -8.546875 95.648438 -8.0625 107.953125 -8.0625 C 113.722656 -8.0625 118.800781 -8.523438 123.1875 -9.453125 C 127.582031 -10.378906 131.390625 -11.914062 134.609375 -14.0625 C 137.835938 -16.207031 140.570312 -18.625 142.8125 -21.3125 C 145.0625 -24 147.039062 -27.441406 148.75 -31.640625 C 150.457031 -35.835938 151.847656 -40.035156 152.921875 -44.234375 C 154.003906 -48.429688 155.128906 -53.609375 156.296875 -59.765625 L 162.59375 -59.765625 L 160.984375 0 Z M 10.6875 0 "/></g></g></g><g fill="#000000" fill-opacity="1"><g transform="translate(1405.383868, 398.415893)"><g><path d="M 10.6875 0 L 10.6875 -6.59375 L 33.25 -8.0625 L 33.25 -200.984375 L 10.6875 -202.4375 L 10.6875 -209.03125 L 88.765625 -209.03125 C 99.609375 -209.03125 109.398438 -208.101562 118.140625 -206.25 C 126.878906 -204.394531 134.691406 -201.460938 141.578125 -197.453125 C 148.460938 -193.453125 153.785156 -188.054688 157.546875 -181.265625 C 161.304688 -174.484375 163.1875 -166.453125 163.1875 -157.171875 C 163.1875 -140.472656 157.570312 -127.460938 146.34375 -118.140625 C 135.113281 -108.816406 119.925781 -102.785156 100.78125 -100.046875 L 100.78125 -99.75 C 108.988281 -99.65625 116.09375 -98.335938 122.09375 -95.796875 C 128.101562 -93.265625 132.890625 -90.019531 136.453125 -86.0625 C 140.015625 -82.101562 143.40625 -77 146.625 -70.75 C 148.78125 -66.457031 151.832031 -59.890625 155.78125 -51.046875 C 159.738281 -42.210938 163.671875 -34.378906 167.578125 -27.546875 C 170.703125 -21.972656 173.972656 -17.671875 177.390625 -14.640625 C 180.804688 -11.617188 183.6875 -9.765625 186.03125 -9.078125 C 188.375 -8.398438 191.0625 -8.0625 194.09375 -8.0625 L 194.09375 0 L 169.78125 0 C 162.351562 0 156.488281 -0.460938 152.1875 -1.390625 C 147.894531 -2.316406 143.625 -4.535156 139.375 -8.046875 C 135.132812 -11.566406 131.351562 -16.425781 128.03125 -22.625 C 124.707031 -28.832031 119.039062 -41.800781 111.03125 -61.53125 C 109.863281 -64.457031 108.179688 -68.238281 105.984375 -72.875 C 103.785156 -77.507812 101.878906 -81.023438 100.265625 -83.421875 C 98.660156 -85.816406 96.757812 -88.332031 94.5625 -90.96875 C 92.363281 -93.601562 90.113281 -95.484375 87.8125 -96.609375 C 85.519531 -97.734375 83.101562 -98.296875 80.5625 -98.296875 C 76.269531 -98.296875 73 -98.242188 70.75 -98.140625 L 70.75 -8.0625 L 93.3125 -6.59375 L 93.3125 0 Z M 70.75 -106.5 C 71.820312 -106.394531 73.828125 -106.34375 76.765625 -106.34375 C 94.140625 -106.34375 106.367188 -110.566406 113.453125 -119.015625 C 120.535156 -127.460938 124.078125 -140.085938 124.078125 -156.890625 C 124.078125 -165.285156 123.070312 -172.410156 121.0625 -178.265625 C 119.0625 -184.128906 116.207031 -188.671875 112.5 -191.890625 C 108.789062 -195.117188 104.6875 -197.414062 100.1875 -198.78125 C 95.695312 -200.144531 90.570312 -200.828125 84.8125 -200.828125 C 81.007812 -200.828125 76.320312 -200.4375 70.75 -199.65625 Z M 70.75 -106.5 "/></g></g></g><path fill="#000000" d="M 53.992188 496.179688 L 53.992188 424.941406 L 1603.105469 424.941406 L 1603.105469 496.179688 L 53.992188 496.179688 " fill-opacity="1" fill-rule="evenodd"/><g clip-path="url(#4d6968abdb)"><path stroke-linecap="butt" transform="matrix(0, -0.674705, -0.675882, 0, 1606.354129, 501.583209)" fill="none" stroke-linejoin="miter" d="M 8.008715 2296.795889 L 113.59303 2296.795889 L 113.59303 4.806552 L 8.008715 4.806552 Z M 8.008715 2296.795889 " stroke="#000000" stroke-width="4.799" stroke-opacity="1" stroke-miterlimit="2.613"/></g></svg>