<svg xmlns="http://www.w3.org/2000/svg" xmlns:xlink="http://www.w3.org/1999/xlink" width="500" zoomAndPan="magnify" viewBox="0 0 375 374.999991" height="500" preserveAspectRatio="xMidYMid meet" version="1.0"><defs><g/><clipPath id="9b6f631438"><rect x="0" width="234" y="0" height="375"/></clipPath><clipPath id="159b406249"><rect x="0" width="214" y="0" height="375"/></clipPath></defs><g><g clip-path="url(#9b6f631438)"><g fill="#419c65" fill-opacity="1"><g transform="translate(2.14179, 283.247911)"><g><path d="M 119.875 4.96875 C 99.582031 4.96875 81.410156 0.101562 65.359375 -9.625 C 49.316406 -19.351562 36.789062 -32.601562 27.78125 -49.375 C 18.78125 -66.144531 14.28125 -84.78125 14.28125 -105.28125 C 14.28125 -125.5625 18.367188 -144.601562 26.546875 -162.40625 C 34.722656 -180.21875 46.9375 -194.660156 63.1875 -205.734375 C 79.445312 -216.816406 99.066406 -222.359375 122.046875 -222.359375 C 144.816406 -222.359375 165.726562 -216.039062 184.78125 -203.40625 L 183.21875 -220.171875 L 200 -220.171875 L 200 -148.125 L 188.8125 -148.125 C 186.738281 -167.382812 179.957031 -182.445312 168.46875 -193.3125 C 156.976562 -204.1875 142.226562 -209.625 124.21875 -209.625 C 109.519531 -209.625 96.113281 -205.535156 84 -197.359375 C 71.894531 -189.179688 62.320312 -177.535156 55.28125 -162.421875 C 48.238281 -147.304688 44.71875 -129.8125 44.71875 -109.9375 C 44.71875 -90.882812 48.441406 -73.851562 55.890625 -58.84375 C 63.347656 -43.832031 73.390625 -32.132812 86.015625 -23.75 C 98.648438 -15.375 112.628906 -11.1875 127.953125 -11.1875 C 141.816406 -11.1875 155.164062 -14.289062 168 -20.5 C 180.84375 -26.707031 191.40625 -35.503906 199.6875 -46.890625 L 207.75 -40.375 C 195.75 -23.601562 181.984375 -11.851562 166.453125 -5.125 C 150.921875 1.601562 135.394531 4.96875 119.875 4.96875 Z M 119.875 4.96875 "/></g></g></g></g></g><g transform="matrix(1, 0, 0, 1, 142, 0)"><g clip-path="url(#159b406249)"><g fill="#000000" fill-opacity="1"><g transform="translate(7.282055, 288.404564)"><g><path d="M -0.96875 0 L -0.96875 -7.21875 L 18.4375 -8.8125 L 94.265625 -235.34375 L 101.484375 -235.34375 L 179.875 -8.8125 L 201.03125 -7.21875 L 201.03125 0 L 115.265625 0 L 115.265625 -7.21875 L 136.90625 -8.8125 L 118 -66.375 L 46.171875 -66.375 L 27.578125 -8.8125 L 49.21875 -7.21875 L 49.21875 0 Z M 49.0625 -75.984375 L 114.46875 -77.265625 L 82.40625 -175.703125 L 81.765625 -175.703125 Z M 49.0625 -75.984375 "/></g></g></g></g></g></svg>